<?xml version="1.0" standalone="no"?><!DOCTYPE svg PUBLIC "-//W3C//DTD SVG 1.1//EN"
        "http://www.w3.org/Graphics/SVG/1.1/DTD/svg11.dtd">
<svg t="1625124383235" class="icon" viewBox="0 0 1024 1024" version="1.1" xmlns="http://www.w3.org/2000/svg" p-id="6089"
     width="36" height="36"    xmlns:xlink="http://www.w3.org/1999/xlink">
    <defs>
        <style type="text/css"></style>
    </defs>
    <g fill="none" transform="translate(40 40)">
    <path  d="M448.665565 46.617724a399.434636 399.434636 0 0 0-284.286318 117.759303A399.434636 399.434636 0 0 0 46.620944 448.663345c0 107.391364 41.829752 208.330767 117.759303 284.286317 3.37998 3.37898 7.090958 6.322963 10.572938 9.599944l523.106904-608.944397a398.76864 398.76864 0 0 0-249.393524-86.987485z m220.005698 121.215283L218.548927 691.784906l450.122336-523.951899z"
          fill="#F8FCFF" p-id="6090"></path>
    <path d="M732.951882 164.377027a411.133567 411.133567 0 0 0-34.866793-30.771818L174.952185 742.523606c74.649558 69.631588 171.134987 108.15936 273.71338 108.18536 107.366365 0 208.357767-41.829752 284.286317-117.785303a399.511636 399.511636 0 0 0 117.759304-284.260318 399.537636 399.537636 0 0 0-117.759304-284.286318z"
          fill="#EFF2F4" p-id="6091"></path>
    <path d="M765.924687 131.404222C681.163189 46.668724 568.497856 0 448.666565 0s-232.498624 46.668724-317.260123 131.404222A445.770362 445.770362 0 0 0 0.00322 448.662345c0 119.833291 46.667724 232.472624 131.429222 317.259122 2.841983 2.841983 5.810966 5.478968 8.805948 8.089952l4.454974 3.967977a446.768356 446.768356 0 0 0 303.972201 119.346294c119.833291 0 232.498624-46.668724 317.258122-131.429223a445.693362 445.693362 0 0 0 131.405223-317.233122 445.975361 445.975361 0 0 0-131.404223-317.259123z m-34.073798 600.444447a398.000645 398.000645 0 0 1-283.185324 117.324306c-100.607405 0-196.938835-37.862776-271.307395-106.54737l-5.349968-4.786972c-2.201987-1.944988-4.453974-3.890977-6.527961-5.964964a397.872645 397.872645 0 0 1-117.299306-283.185324c0-106.981367 41.651754-207.563772 117.299306-283.211324S341.709198 48.179715 448.665565 48.179715s207.538772 41.650754 283.185324 117.299306a398.000645 398.000645 0 0 1 117.299306 283.210324c0 106.956367-41.651754 207.538772-117.299306 283.160324z"
          fill="#3BAFDA" p-id="6092"></path>
    <path d="M796.542506 731.055674c-9.599943 11.928929-19.839883 23.525861-30.899817 34.584795-11.083934 11.084934-22.706866 21.298874-34.609795 30.898817 9.368945 9.957941 73.419566 74.31656 73.419565 74.31656l66.431607-66.406607c0 0.026-64.409619-63.973621-74.34156-73.394565z"
          fill="#259EBA" p-id="6093"></path>
    <path d="M1015.753209 916.934574L897.175911 798.358275a27.877835 27.877835 0 0 0-39.525767 0l-3.25098 3.249981-52.787688 52.787688-3.249981 3.25098a27.852835 27.852835 0 0 0 0 39.526767l118.577299 118.578298a27.826835 27.826835 0 0 0 39.526766 0l59.289649-59.289649a27.826835 27.826835 0 0 0 0-39.525766z"
          fill="#3BAFDA" p-id="6094"></path>
    <path d="M293.095485 213.067739L149.480335 461.821267l105.906374 183.422914L427.008693 445.027366z" fill="#F56E57"
          p-id="6095"></path>
    <path d="M724.682931 461.36027l-0.255998 0.460997H436.684636l-9.675943-16.793901-171.621984 200.216815 37.964775 65.765611h287.742297l143.871149-249.188525z"
          fill="#D56649" p-id="6096"></path>
    <path d="M592.408714 197.144833H326.785286l-0.229999 0.434998 125.771256 217.90571 159.026059-185.521902z"
          fill="#F9C82D" p-id="6097"></path>
    <path d="M611.352602 229.963639L452.326543 415.485541l6.75796 11.699931h265.624428l0.255999-0.435997z"
          fill="#E5B223" p-id="6098" ></path>
    </g>
</svg>